<svg id="Layer_1" data-name="Layer 1" xmlns="http://www.w3.org/2000/svg" viewBox="0 0 184.8 203.66"><defs><style>.cls-1{fill:#231f20;}.cls-2{fill:#fff;}</style></defs><path class="cls-1" d="M330.06,344.9v18.74a47.92,47.92,0,0,0-47.85,0V344.9c0-8-3.53-12-10.63-12q-9.9,0-9.89,12v60a24,24,0,0,1-24.05,24h-24V343.51q0-22.29,16.44-35.82t44-13.52q27.08,0,41.56,13.13T330.06,344.9Z" transform="translate(-213.6 -294.17)"/><circle class="cls-1" cx="91.92" cy="101.83" r="23.72"/><path class="cls-1" d="M282.22,373.43v.08a.19.19,0,0,1,0-.08Z" transform="translate(-213.6 -294.17)"/><path class="cls-1" d="M330.06,373.43h0v0Z" transform="translate(-213.6 -294.17)"/><path class="cls-2" d="M330.06,373.43h0v0Z" transform="translate(-213.6 -294.17)"/><path class="cls-1" d="M282.22,373.43v.08a.19.19,0,0,1,0-.08Z" transform="translate(-213.6 -294.17)"/><path class="cls-1" d="M398.4,363v85.47q0,22.29-16.44,35.82t-44,13.52q-27.08,0-41.56-13.13t-14.5-37.6V428.36a47.92,47.92,0,0,0,47.85,0V447.1c0,8,3.53,12,10.63,12q9.9,0,9.89-12v-60a24,24,0,0,1,24.05-24Z" transform="translate(-213.6 -294.17)"/><path class="cls-1" d="M329.78,436.32v-.08a.19.19,0,0,1,0,.08Z" transform="translate(-213.6 -294.17)"/><path class="cls-1" d="M281.94,436.32h0v0Z" transform="translate(-213.6 -294.17)"/><path class="cls-2" d="M281.94,436.32h0v0Z" transform="translate(-213.6 -294.17)"/><path class="cls-1" d="M329.78,436.32v-.08a.19.19,0,0,1,0,.08Z" transform="translate(-213.6 -294.17)"/></svg>